<svg width="76" height="76" viewBox="0 0 76 76" xmlns="http://www.w3.org/2000/svg">
    <g fill="#1B1A19">
        <path d="M2.533 2.533h70.934v70.934H2.533V2.533zM74.733 0H1.267C.57 0 0 .633 0 1.267v73.466C0 75.493.57 76 1.267 76h73.466C75.43 76 76 75.493 76 74.733V1.267C76 .633 75.43 0 74.733 0z"/>
        <path d="M16.888 29.515c.24.252.557.378.9.378.328 0 .658-.126.886-.378l15.973-15.962c.494-.505.494-1.393 0-1.773-.494-.507-1.292-.507-1.786 0L17.788 26.853 12.29 21.28c-.494-.507-1.292-.507-1.786 0s-.494 1.268 0 1.773l6.384 6.462"/>
        <path d="M16.888 59.912c.253.254.57.38.9.38.316 0 .645-.126.886-.38l15.973-15.96c.494-.506.494-1.266 0-1.773-.494-.506-1.292-.506-1.786 0L17.788 57.25l-5.497-5.446c-.494-.507-1.292-.507-1.786 0-.494.506-.494 1.268 0 1.773l6.384 6.332"/>
        <path d="M39.267 27.867h25.548c.71 0 1.267-.508 1.267-1.268 0-.633-.557-1.267-1.267-1.267H39.267c-.697 0-1.267.634-1.267 1.266 0 .76.57 1.267 1.267 1.267"/>
        <path d="M39.267 55.733h25.548c.71 0 1.267-.506 1.267-1.266 0-.634-.557-1.267-1.267-1.267H39.267c-.697 0-1.267.633-1.267 1.267 0 .76.57 1.266 1.267 1.266"/>
    </g>
</svg>
